<svg width="100" height="50" viewBox="0 0 100 50" fill="none" xmlns="http://www.w3.org/2000/svg">
<g clip-path="url(#clip0_3_7)">
<path d="M17.8157 15.293C18.5708 14.6977 19.4876 14.4 20.5663 14.4C21.6809 14.4 22.6157 14.7907 23.3708 15.5721C24.1618 16.3535 24.5573 17.5628 24.5573 19.2V36.9488C24.5573 38.5116 24.3236 39.5907 23.8562 40.1861C22.9214 41.3023 21.5551 41.8605 19.7573 41.8605H0.98877V38.0651H4.38652V3.73954H1.0427V0H12.3146C15.982 0 17.8157 1.65582 17.8157 4.96744V15.293ZM13.4472 18.1395V3.73954H8.80899V21.1535L13.4472 18.1395ZM20.2427 18.1954L8.80899 25.6186V38.0093H20.2427V18.1954ZM28.8526 23.386C28.8526 22.7535 29.0683 22.2233 29.4998 21.7953C29.9312 21.3488 30.4436 21.1256 31.0369 21.1256C31.6301 21.1256 32.1335 21.3488 32.547 21.7953C32.9784 22.2233 33.1942 22.7535 33.1942 23.386C33.1942 24.0186 32.9784 24.5488 32.547 24.9767C32.1335 25.4047 31.6301 25.6186 31.0369 25.6186C30.4436 25.6186 29.9312 25.4047 29.4998 24.9767C29.0683 24.5488 28.8526 24.0186 28.8526 23.386ZM29.2571 27.6837H29.5536C30.4885 27.6837 31.2706 27.9442 31.8998 28.4651C32.547 28.986 32.8706 29.814 32.8706 30.9488V41.8605H32.7088C32.2953 41.8605 31.8818 41.8047 31.4683 41.693C31.0728 41.5814 30.7043 41.4047 30.3627 41.1628C30.0391 40.9023 29.7694 40.5767 29.5536 40.1861C29.356 39.7767 29.2571 39.2744 29.2571 38.6791V27.6837ZM39.2371 37.507C39.2371 37.7302 39.2461 37.9442 39.264 38.1488C39.3 38.3535 39.3539 38.5395 39.4258 38.707C39.5157 38.8558 39.6326 38.986 39.7764 39.0977C39.9382 39.1907 40.1539 39.2372 40.4236 39.2372C40.5674 39.2372 40.7112 39.2186 40.8551 39.1814C41.0169 39.1256 41.1607 39.0419 41.2865 38.9302C41.3584 39.0791 41.4034 39.2279 41.4214 39.3767C41.4393 39.507 41.4483 39.6465 41.4483 39.7953C41.4483 40.3907 41.2056 40.8837 40.7202 41.2744C40.2348 41.6651 39.6506 41.8605 38.9674 41.8605C37.8888 41.8605 37.0618 41.5628 36.4865 40.9674C35.9112 40.3721 35.6236 39.6279 35.6236 38.7349V30.9767C35.6236 30.3628 35.7315 29.8512 35.9472 29.4419C36.1809 29.014 36.4685 28.6698 36.8101 28.4093C37.1697 28.1488 37.5562 27.9628 37.9697 27.8512C38.4011 27.7395 38.8236 27.6837 39.2371 27.6837V37.507ZM41.7719 32.0372C41.7719 31.814 41.7539 31.6 41.718 31.3953C41.7 31.1907 41.6461 31.014 41.5562 30.8651C41.4843 30.6977 41.3674 30.5674 41.2056 30.4744C41.0618 30.3628 40.8551 30.307 40.5854 30.307C40.4416 30.307 40.2888 30.3349 40.127 30.3907C39.9832 30.4279 39.8483 30.5023 39.7225 30.614C39.6506 30.4651 39.6056 30.3256 39.5876 30.1954C39.5697 30.0465 39.5607 29.8977 39.5607 29.7488C39.5607 29.1535 39.8034 28.6605 40.2888 28.2698C40.7742 27.8791 41.3584 27.6837 42.0416 27.6837C43.1202 27.6837 43.9472 27.9721 44.5225 28.5488C45.0978 29.107 45.3854 29.9163 45.3854 30.9767V42.4465C45.3854 42.9302 45.2775 43.3674 45.0618 43.7581C44.864 44.1674 44.5944 44.5209 44.2528 44.8186C43.9112 45.1163 43.5247 45.3488 43.0933 45.5163C42.6618 45.6837 42.2213 45.7674 41.7719 45.7674V32.0372ZM37.4034 46.8279C37.4034 46.2512 37.5112 45.7767 37.727 45.4047C37.9427 45.0512 38.2034 44.7721 38.509 44.5674C38.8146 44.3628 39.1382 44.2233 39.4798 44.1488C39.8214 44.093 40.118 44.0651 40.3697 44.0651C40.5854 44.0651 40.7652 44.0837 40.909 44.1209V45.4047C40.909 45.7954 40.9989 46.0837 41.1787 46.2698C41.3584 46.4558 41.5831 46.5488 41.8528 46.5488C42.1764 46.5488 42.464 46.4372 42.7157 46.214C42.7697 46.3628 42.7966 46.493 42.7966 46.6047C42.8146 46.7349 42.8236 46.8744 42.8236 47.0233C42.8236 47.2465 42.7697 47.4977 42.6618 47.7767C42.5719 48.0744 42.4191 48.3442 42.2034 48.586C42.0056 48.8465 41.736 49.0605 41.3944 49.2279C41.0708 49.414 40.6753 49.507 40.2079 49.507C39.7225 49.507 39.3 49.4233 38.9405 49.2558C38.5989 49.0884 38.3112 48.8744 38.0775 48.614C37.8618 48.3721 37.691 48.093 37.5652 47.7767C37.4573 47.4605 37.4034 47.1442 37.4034 46.8279Z" fill="#0047FF" fill-opacity="0.75"/>
<path d="M66.6658 15.293C67.4209 14.6977 68.3378 14.4 69.4164 14.4C70.531 14.4 71.4659 14.7907 72.2209 15.5721C73.0119 16.3535 73.4074 17.5628 73.4074 19.2V36.9488C73.4074 38.5116 73.1737 39.5907 72.7063 40.1861C71.7715 41.3023 70.4052 41.8605 68.6074 41.8605H49.8389V38.0651H53.2366V3.73954H49.8928V0H61.1647C64.8321 0 66.6658 1.65582 66.6658 4.96744V15.293ZM62.2973 18.1395V3.73954H57.6591V21.1535L62.2973 18.1395ZM69.0928 18.1954L57.6591 25.6186V38.0093H69.0928V18.1954ZM81.4509 41.8605H81.1812C80.7678 41.8605 80.3633 41.814 79.9678 41.7209C79.5723 41.6093 79.2127 41.4326 78.8891 41.1907C78.5835 40.9302 78.3318 40.5954 78.134 40.1861C77.9363 39.7767 77.8374 39.2744 77.8374 38.6791V31.1721C77.8374 30.1488 78.0711 29.3116 78.5385 28.6605C79.0239 28.0093 79.806 27.6837 80.8846 27.6837C81.6037 27.6837 82.197 27.8791 82.6644 28.2698C83.1318 28.6419 83.3655 29.2465 83.3655 30.0837C83.3655 30.3628 83.3296 30.5674 83.2576 30.6977C83.006 30.4744 82.7363 30.3628 82.4487 30.3628C82.0532 30.3628 81.7835 30.5023 81.6397 30.7814C81.5138 31.0605 81.4509 31.3581 81.4509 31.6744V41.8605ZM83.8509 27.7116C83.9408 27.693 84.0307 27.6837 84.1206 27.6837H84.3902C85.361 27.6837 86.1161 27.9442 86.6554 28.4651C87.1947 28.9674 87.4644 29.693 87.4644 30.6419V32.1767C87.4644 33.4419 87.1588 34.3814 86.5475 34.9953C85.9363 35.6093 85.1902 35.9163 84.3093 35.9163H84.1206C83.4374 35.8791 82.8801 35.6465 82.4487 35.2186C82.0352 34.7721 81.8284 34.2419 81.8284 33.6279C81.8284 33.5349 81.8284 33.4512 81.8284 33.3767C81.8464 33.3023 81.8824 33.1907 81.9363 33.0419C82.0801 33.1907 82.206 33.3023 82.3138 33.3767C82.4217 33.4512 82.6015 33.4884 82.8532 33.4884C83.2666 33.4884 83.5363 33.3395 83.6621 33.0419C83.788 32.7256 83.8509 32.3628 83.8509 31.9535V27.7116ZM87.3565 39.1535C87.3565 39.6744 87.2666 40.1116 87.0869 40.4651C86.9251 40.8 86.7093 41.0791 86.4397 41.3023C86.17 41.507 85.8734 41.6558 85.5498 41.7488C85.2262 41.8233 84.9116 41.8605 84.606 41.8605C83.6891 41.8605 83.0419 41.6279 82.6644 41.1628C82.2869 40.6977 82.0981 40.1767 82.0981 39.6C82.0981 39.507 82.0981 39.3954 82.0981 39.2651C82.1161 39.1349 82.161 38.9954 82.2329 38.8465C82.4666 39.0698 82.7363 39.1814 83.0419 39.1814C83.4734 39.1442 83.7251 38.9954 83.797 38.7349C83.8689 38.4744 83.9048 38.1488 83.9048 37.7581V36.7256C84.1745 36.6512 84.4981 36.614 84.8756 36.614C85.343 36.614 85.7295 36.6884 86.0352 36.8372C86.3588 36.986 86.6194 37.1814 86.8172 37.4233C87.0149 37.6651 87.1498 37.9442 87.2217 38.2605C87.3116 38.5581 87.3565 38.8558 87.3565 39.1535ZM95.9152 32.0372C95.9152 31.814 95.8972 31.6 95.8612 31.3953C95.8433 31.1907 95.7893 31.014 95.6994 30.8651C95.6275 30.6977 95.5107 30.5674 95.3489 30.4744C95.2051 30.3628 94.9983 30.307 94.7287 30.307C94.5848 30.307 94.432 30.3349 94.2702 30.3907C94.1264 30.4279 93.9916 30.5023 93.8657 30.614C93.7938 30.4651 93.7489 30.3256 93.7309 30.1954C93.7129 30.0465 93.7039 29.8977 93.7039 29.7488C93.7039 29.1535 93.9646 28.6605 94.486 28.2698C95.0073 27.8791 95.6725 27.6837 96.4815 27.6837C97.4523 27.6837 98.1983 27.9907 98.7197 28.6047C99.259 29.2 99.5287 30.0837 99.5287 31.2558V41.8605H99.3669C98.2882 41.8605 97.4433 41.6 96.832 41.0791C96.2208 40.5395 95.9152 39.6837 95.9152 38.5116V32.0372ZM89.7669 27.6837H90.0635C90.9983 27.6837 91.7803 27.9442 92.4096 28.4651C93.0567 28.986 93.3803 29.814 93.3803 30.9488V41.8605H93.2185C92.8051 41.8605 92.3916 41.8047 91.9781 41.693C91.5826 41.5814 91.2141 41.4047 90.8725 41.1628C90.5489 40.9023 90.2792 40.5767 90.0635 40.1861C89.8657 39.7767 89.7669 39.2744 89.7669 38.6791V27.6837Z" fill="#FF0000"/>
</g>
<defs>
<clipPath id="clip0_3_7">
<rect width="100" height="50" fill="white"/>
</clipPath>
</defs>
</svg>
